<svg xmlns="http://www.w3.org/2000/svg" xml:space="preserve" width="800" height="800" viewBox="0 0 209.333 209.333"><path d="M165.766 195.725c-35.375-16.164-59.835-50.859-59.835-91.058 0-40.197 24.458-74.89 59.829-91.055 5.525-2.525 4.525-10.616-1.442-11.755A105.356 105.356 0 0 0 142.641.018C114.937.524 89.84 11.923 71.389 30.044c3.394 2.874 5.555 7.16 5.555 11.956 0 8.653-7.014 15.667-15.667 15.667-3.227 0-6.225-.978-8.717-2.65-8.195 15.088-12.794 32.365-12.624 50.644.533 57.348 47.188 103.673 104.662 103.673 6.737 0 13.325-.637 19.708-1.854 5.975-1.141 6.994-9.227 1.46-11.755zM87.277 156c-5.523 0-10-4.477-10-10s4.477-10 10-10 10 4.477 10 10-4.477 10-10 10z"/></svg>